<?xml version="1.0" encoding="UTF-8"?>
<svg xmlns="http://www.w3.org/2000/svg" xmlns:xlink="http://www.w3.org/1999/xlink" version="1.1" viewBox="0 0 1600 634.08">
  <defs>
    <style>
      .cls-1 {
        fill: #010101;
      }

      .cls-2 {
        fill: url(#New_Gradient_Swatch_1-3);
      }

      .cls-2, .cls-3, .cls-4, .cls-5, .cls-6, .cls-7, .cls-8, .cls-9, .cls-10, .cls-11 {
        stroke: #8cb6e1;
        stroke-miterlimit: 10;
        stroke-opacity: .21;
        stroke-width: .65px;
      }

      .cls-3 {
        fill: url(#New_Gradient_Swatch_1-4);
      }

      .cls-4 {
        fill: url(#New_Gradient_Swatch_1-9);
      }

      .cls-5 {
        fill: url(#New_Gradient_Swatch_1-6);
      }

      .cls-6 {
        fill: url(#New_Gradient_Swatch_1-7);
      }

      .cls-7 {
        fill: url(#New_Gradient_Swatch_1-5);
      }

      .cls-8 {
        fill: url(#New_Gradient_Swatch_1-8);
      }

      .cls-9 {
        fill: url(#New_Gradient_Swatch_1-2);
      }

      .cls-10 {
        fill: url(#New_Gradient_Swatch_1-10);
      }

      .cls-11 {
        fill: url(#New_Gradient_Swatch_1);
      }

      .cls-12 {
        fill: #434341;
        opacity: .66;
      }
    </style>
    <linearGradient id="New_Gradient_Swatch_1" data-name="New Gradient Swatch 1" x1="489.52" y1="26.04" x2="489.52" y2="367.84" gradientUnits="userSpaceOnUse">
      <stop offset="0" stop-color="#ffc51b"/>
      <stop offset=".51" stop-color="#f6dc7c"/>
      <stop offset="1" stop-color="#f1e3b6"/>
    </linearGradient>
    <linearGradient id="New_Gradient_Swatch_1-2" data-name="New Gradient Swatch 1" x1="489.52" y1="68.93" x2="489.52" xlink:href="#New_Gradient_Swatch_1"/>
    <linearGradient id="New_Gradient_Swatch_1-3" data-name="New Gradient Swatch 1" x1="489.52" y1="68.93" x2="489.52" xlink:href="#New_Gradient_Swatch_1"/>
    <linearGradient id="New_Gradient_Swatch_1-4" data-name="New Gradient Swatch 1" y1="126.11" xlink:href="#New_Gradient_Swatch_1"/>
    <linearGradient id="New_Gradient_Swatch_1-5" data-name="New Gradient Swatch 1" y1="126.11" xlink:href="#New_Gradient_Swatch_1"/>
    <linearGradient id="New_Gradient_Swatch_1-6" data-name="New Gradient Swatch 1" y1="126.11" xlink:href="#New_Gradient_Swatch_1"/>
    <linearGradient id="New_Gradient_Swatch_1-7" data-name="New Gradient Swatch 1" y1="173.29" xlink:href="#New_Gradient_Swatch_1"/>
    <linearGradient id="New_Gradient_Swatch_1-8" data-name="New Gradient Swatch 1" y1="173.29" xlink:href="#New_Gradient_Swatch_1"/>
    <linearGradient id="New_Gradient_Swatch_1-9" data-name="New Gradient Swatch 1" y1="173.29" xlink:href="#New_Gradient_Swatch_1"/>
    <linearGradient id="New_Gradient_Swatch_1-10" data-name="New Gradient Swatch 1" y1="173.29" xlink:href="#New_Gradient_Swatch_1"/>
  </defs>
  <!-- Generator: Adobe Illustrator 28.7.1, SVG Export Plug-In . SVG Version: 1.2.0 Build 142)  -->
  <g>
    <g id="Layer_1">
      <g>
        <g>
          <path class="cls-1" d="M151.28,436.83h-50.48l-19.64,55.07h19.13v4.84h-39.01v-4.84h11.98l65.02-175.15h20.9l64.25,175.15h11.73v4.84h-83.38v-4.84h18.11l-18.62-55.07ZM103.09,431.22h46.15l-22.19-66.8-23.96,66.8Z"/>
          <path class="cls-1" d="M304.16,405.75v17.59c3.25-9.56,9.55-19.5,28.48-19.5,17.78,0,29.64,8.8,29.64,31.93v57.55h10.71v3.44h-54.11v-3.44h7.84v-62.14c0-16.25-2.29-18.16-7.07-18.16-8.03,0-15.49,12.04-15.49,27.53v52.77h8.22v3.44h-54.29v-3.44h10.52v-84.12h-10.52v-3.44h46.08Z"/>
          <path class="cls-1" d="M394.22,464.44h2.29c7.07,23.32,18.73,30.01,34.41,30.01,14.15,0,19.5-5.17,19.5-12.43,0-8.6-9.37-10.51-23.89-14.53-15.3-4.21-32.31-10.13-32.31-31.35,0-19.5,13.38-32.31,33.65-32.31,8.4,0,14.14,2.11,19.3,4.4,2.29.95,3.06,1.53,5.35,1.53,2.86,0,4.2-1.53,6.69-6.31h2.11v29.25h-2.29c-6.89-17.59-16.64-24.85-30.21-24.85-12.62,0-17.78,5.17-17.78,11.09,0,8.8,11.47,10.9,24.09,14.34,15.1,4.01,31.93,10.13,31.93,32.69s-14.15,32.69-35.76,32.69c-9.17,0-15.67-1.91-22.94-5.54-1.15-.77-2.87-1.53-3.63-1.53-2.49,0-5.17,1.72-8.23,7.07h-2.29v-34.22Z"/>
          <path class="cls-1" d="M538.19,403.83c32.12,0,47.41,15.1,47.41,46.07s-14.52,48.75-48.56,48.75c-32.12,0-48.37-17.21-48.37-47.03,0-31.35,18.74-47.79,49.52-47.79ZM548.9,442.84c0-20.65-.57-35.56-11.29-35.56-11.66,0-12.23,14.91-12.23,36.51v14.91c0,22.18.38,36.51,12.04,36.51,10.9,0,11.47-11.28,11.47-36.13v-16.25Z"/>
          <path class="cls-1" d="M651.37,405.75v17.59c3.06-9.56,9.37-19.5,26.96-19.5,13.57,0,23.7,5.93,26.95,20.65,3.06-9.56,10.9-20.65,28.1-20.65s28.11,8.8,28.11,31.93v57.55h10.71v3.44h-52.96v-3.44h6.69v-62.14c0-16.25-2.11-18.16-5.55-18.16-6.88,0-13.95,10.32-13.95,26.38v53.91h6.88v3.44h-49.13v-3.44h6.69v-62.14c0-16.25-2.11-18.16-5.55-18.16-7.06,0-13.95,12.04-13.95,27.53v52.77h6.89v3.44h-52.96v-3.44h10.51v-84.12h-10.51v-3.44h46.07Z"/>
          <path class="cls-1" d="M974.2,318.28l2.55,50.48h-4.6c-14.01-33.4-26.01-44.87-56.86-44.87h-8.92v78.78h8.67c16.57,0,27.28-14.02,31.62-33.4h3.82v75.47h-4.34c-6.11-25.5-15.8-35.44-33.65-35.44h-6.12v81.84h9.69c32.39,0,54.82-22.18,62.47-49.97h5.09l-2.03,55.58h-139.98v-5.61h15.05v-167.25h-15.05v-5.61h132.58Z"/>
          <path class="cls-1" d="M1014.47,405.75h57.16v3.44h-12.04l22.95,63.47,20.64-63.47h-12.81v-3.44h25.81v3.44h-8.41l-28.29,87.56h-21.79l-35.37-87.56h-7.83v-3.44Z"/>
          <path class="cls-1" d="M1177.74,403.83c30.02,0,42.82,15.1,41.68,43.59h-53.91v7.46c0,22.56,4.01,37.85,22.55,37.85,14.15,0,23.71-8.98,27.91-23.71l3.44.58c-4.4,16.44-14.34,29.06-41.48,29.06-34.03,0-49.32-19.5-49.32-47.22,0-33.07,22.55-47.6,49.13-47.6ZM1185.39,443.6v-9.37c0-20.07-1.52-26.76-9.37-26.76-6.69,0-10.32,6.5-10.32,26.76v9.37h19.69Z"/>
          <path class="cls-1" d="M1287.11,405.75v17.59c3.25-9.56,9.55-19.5,28.48-19.5,17.78,0,29.64,8.8,29.64,31.93v57.55h10.71v3.44h-54.11v-3.44h7.84v-62.14c0-16.25-2.29-18.16-7.07-18.16-8.03,0-15.49,12.04-15.49,27.53v52.77h8.22v3.44h-54.29v-3.44h10.52v-84.12h-10.52v-3.44h46.08Z"/>
          <path class="cls-1" d="M1381.38,409.19h-10.52v-3.44h10.52v-24.66l35.55-8.79v33.45h24.85v3.44h-24.85v64.43c0,11.28,1.72,17.4,8.41,17.4,9.18,0,14.92-8.41,16.64-21.41l3.25.38c-1.72,14.91-8.03,28.68-31.35,28.68-18.93,0-32.5-5.54-32.5-29.25v-60.22Z"/>
          <path class="cls-1" d="M1465.88,464.44h2.3c7.06,23.32,18.73,30.01,34.41,30.01,14.15,0,19.5-5.17,19.5-12.43,0-8.6-9.37-10.51-23.9-14.53-15.29-4.21-32.31-10.13-32.31-31.35,0-19.5,13.39-32.31,33.65-32.31,8.41,0,14.15,2.11,19.3,4.4,2.3.95,3.06,1.53,5.35,1.53,2.87,0,4.21-1.53,6.7-6.31h2.1v29.25h-2.29c-6.88-17.59-16.63-24.85-30.21-24.85-12.61,0-17.78,5.17-17.78,11.09,0,8.8,11.47,10.9,24.09,14.34,15.1,4.01,31.93,10.13,31.93,32.69s-14.15,32.69-35.75,32.69c-9.18,0-15.67-1.91-22.95-5.54-1.14-.77-2.86-1.53-3.63-1.53-2.49,0-5.17,1.72-8.22,7.07h-2.3v-34.22Z"/>
        </g>
        <g>
          <path class="cls-11" d="M275.09,283.36c0-118.43,96.01-214.44,214.44-214.44s214.44,96.01,214.44,214.44c0,30-6.18,58.55-17.31,84.47h45.93c9.2-26.47,14.26-54.87,14.26-84.47,0-142.12-115.21-257.32-257.32-257.32S232.2,141.25,232.2,283.36c0,29.6,5.06,58.01,14.26,84.47h45.93c-11.12-25.93-17.31-54.48-17.31-84.47Z"/>
          <path class="cls-9" d="M489.52,68.93c-118.43,0-214.44,96.01-214.44,214.44,0,30,6.18,58.55,17.31,84.47h64.52c-15.58-24.41-24.65-53.37-24.65-84.47,0-86.85,70.41-157.25,157.25-157.25s157.25,70.4,157.25,157.25c0,31.1-9.07,60.07-24.65,84.47h64.52c11.12-25.93,17.31-54.48,17.31-84.47,0-118.43-96.01-214.44-214.44-214.44Z"/>
          <path class="cls-2" d="M489.52,68.93c-118.43,0-214.44,96.01-214.44,214.44,0,30,6.18,58.55,17.31,84.47h64.52c-15.58-24.41-24.65-53.37-24.65-84.47,0-86.85,70.41-157.25,157.25-157.25s157.25,70.4,157.25,157.25c0,31.1-9.07,60.07-24.65,84.47h64.52c11.12-25.93,17.31-54.48,17.31-84.47,0-118.43-96.01-214.44-214.44-214.44Z"/>
          <path class="cls-3" d="M379.45,283.36c0-60.79,49.28-110.08,110.08-110.08s110.08,49.28,110.08,110.08c0,33.94-15.37,64.28-39.52,84.47h62.05c15.58-24.41,24.65-53.37,24.65-84.47,0-86.85-70.41-157.25-157.25-157.25s-157.25,70.4-157.25,157.25c0,31.1,9.07,60.07,24.65,84.47h62.05c-24.15-20.19-39.52-50.53-39.52-84.47Z"/>
          <path class="cls-7" d="M379.45,283.36c0-60.79,49.28-110.08,110.08-110.08s110.08,49.28,110.08,110.08c0,33.94-15.37,64.28-39.52,84.47h62.05c15.58-24.41,24.65-53.37,24.65-84.47,0-86.85-70.41-157.25-157.25-157.25s-157.25,70.4-157.25,157.25c0,31.1,9.07,60.07,24.65,84.47h62.05c-24.15-20.19-39.52-50.53-39.52-84.47Z"/>
          <path class="cls-5" d="M379.45,283.36c0-60.79,49.28-110.08,110.08-110.08s110.08,49.28,110.08,110.08c0,33.94-15.37,64.28-39.52,84.47h62.05c15.58-24.41,24.65-53.37,24.65-84.47,0-86.85-70.41-157.25-157.25-157.25s-157.25,70.4-157.25,157.25c0,31.1,9.07,60.07,24.65,84.47h62.05c-24.15-20.19-39.52-50.53-39.52-84.47Z"/>
          <path class="cls-6" d="M599.6,283.36c0-60.79-49.28-110.08-110.08-110.08s-110.08,49.28-110.08,110.08c0,33.94,15.37,64.28,39.52,84.47h141.11c24.15-20.19,39.52-50.53,39.52-84.47Z"/>
          <path class="cls-8" d="M599.6,283.36c0-60.79-49.28-110.08-110.08-110.08s-110.08,49.28-110.08,110.08c0,33.94,15.37,64.28,39.52,84.47h141.11c24.15-20.19,39.52-50.53,39.52-84.47Z"/>
          <path class="cls-4" d="M599.6,283.36c0-60.79-49.28-110.08-110.08-110.08s-110.08,49.28-110.08,110.08c0,33.94,15.37,64.28,39.52,84.47h141.11c24.15-20.19,39.52-50.53,39.52-84.47Z"/>
          <path class="cls-10" d="M599.6,283.36c0-60.79-49.28-110.08-110.08-110.08s-110.08,49.28-110.08,110.08c0,33.94,15.37,64.28,39.52,84.47h141.11c24.15-20.19,39.52-50.53,39.52-84.47Z"/>
        </g>
        <path class="cls-12" d="M449.62,209.04c-6.02-2.38-11.38-2.78-14.71-2.77,3.23-2.88,7.93-6.46,14.19-9.52,6.8-3.32,13-4.82,17.48-5.54-4.96-1.02-14.09-2.21-24.92.52-8.57,2.16-14.87,5.93-18.69,8.65,1.21-3.75,3.07-11.26,1.56-20.59-1.61-9.93-6.22-16.76-8.65-19.9,2.21,5.93,6.21,19.32,2.08,34.95-1.58,5.99-3.98,10.85-6.23,14.54.87-2.13,6.09-15.57-.87-28.38-6.94-12.76-20.89-15.54-26.3-16.61-11.26-2.24-20.55.48-24.92,2.08,3.13.38,26.91,3.69,38.24,24.05,4.52,8.13,5.44,16.06,5.54,21.11-3.66-15.65-15.2-27.3-28.55-29.07-15.04-1.99-27.1,9.25-29.24,11.25-4.63,4.32-7.4,8.9-9,12.11,3.43-2.43,9.17-5.86,16.96-7.61,4.29-.97,19.19-4.33,32.36,4.67,7.69,5.26,11.43,12.44,13.15,16.61-8.08-11.38-21.39-17.69-34.78-16.27-17,1.81-28.18,15.43-32.01,27.69-2.61,8.35-1.72,15.75-.87,19.9,1.38-4.55,5.23-14.88,15.4-22.84,1.31-1.02,17.88-13.57,37.72-8.31,5.48,1.45,9.59,3.83,12.11,5.54-7.8-1.61-15.59.71-20.25,6.23-3.61,4.28-4.2,9.14-4.33,11.25,1.27-2.09,6.43-10.02,16.09-12.11,3.04-.66,5.77-.58,7.9-.29-2.91,2.88-7.3,7.48-12,13.61-24.56,32.02-28.56,67.56-30.34,85.37-.9,8.95-1.58,21.74-.34,37.24,7.77-.26,15.54-.51,23.31-.77-1.06-4.2-2.36-10.07-3.33-17.16-1.23-8.99-4.3-37.33,6.4-71.47,3.45-11.01,9.48-26.25,20.33-42.73,2.44,3.13,5.58,7.87,7.96,14.19,2.2,5.85,3,11.08,3.29,14.88,1.87-4.29,5.12-13.5,2.94-24.57-.76-3.86-2.02-7.11-3.29-9.69,3.67,3.15,13.79,12.7,16.96,28.55,1.85,9.24.61,17.01-.52,21.63.91-.96,12.78-13.9,8.65-30.97-3.14-12.97-13.34-19.36-15.4-20.59,6.16,3.66,24.21,15.49,32.19,38.59,3.65,10.59,4,20.1,3.63,26.65,3.5-5.22,7.2-12.63,8.48-21.98.53-3.86,2.95-21.52-8.83-35.99-5.04-6.19-10.85-9.55-14.36-11.25,4.73.71,13.61,2.73,22.32,9.34,5.23,3.97,8.71,8.32,10.9,11.59-.22-3.86-1.33-14.3-9.17-23.88-6.33-7.73-13.81-10.97-16.27-11.94Z"/>
        <path class="cls-12" d="M532.54,209.04c6.02-2.38,11.38-2.78,14.71-2.77-3.23-2.88-7.93-6.46-14.19-9.52-6.8-3.32-13-4.82-17.48-5.54,4.96-1.02,14.09-2.21,24.92.52,8.57,2.16,14.87,5.93,18.69,8.65-1.21-3.75-3.07-11.26-1.56-20.59,1.61-9.93,6.22-16.76,8.65-19.9-2.21,5.93-6.21,19.32-2.08,34.95,1.58,5.99,3.98,10.85,6.23,14.54-.87-2.13-6.09-15.57.87-28.38,6.94-12.76,20.89-15.54,26.3-16.61,11.26-2.24,20.55.48,24.92,2.08-3.13.38-26.91,3.69-38.24,24.05-4.52,8.13-5.44,16.06-5.54,21.11,3.66-15.65,15.2-27.3,28.55-29.07,15.04-1.99,27.1,9.25,29.24,11.25,4.63,4.32,7.4,8.9,9,12.11-3.43-2.43-9.17-5.86-16.96-7.61-4.29-.97-19.19-4.33-32.36,4.67-7.69,5.26-11.43,12.44-13.15,16.61,8.08-11.38,21.39-17.69,34.78-16.27,17,1.81,28.18,15.43,32.01,27.69,2.61,8.35,1.72,15.75.87,19.9-1.38-4.55-5.23-14.88-15.4-22.84-1.31-1.02-17.88-13.57-37.72-8.31-5.48,1.45-9.59,3.83-12.11,5.54,7.8-1.61,15.59.71,20.25,6.23,3.61,4.28,4.2,9.14,4.33,11.25-1.27-2.09-6.43-10.02-16.09-12.11-3.04-.66-5.77-.58-7.9-.29,2.91,2.88,7.3,7.48,12,13.61,24.56,32.02,28.56,67.56,30.34,85.37.9,8.95,1.58,21.74.34,37.24-7.77-.26-15.54-.51-23.31-.77,1.06-4.2,2.36-10.07,3.33-17.16,1.23-8.99,4.3-37.33-6.4-71.47-3.45-11.01-9.48-26.25-20.33-42.73-2.44,3.13-5.58,7.87-7.96,14.19-2.2,5.85-3,11.08-3.29,14.88-1.87-4.29-5.12-13.5-2.94-24.57.76-3.86,2.02-7.11,3.29-9.69-3.67,3.15-13.79,12.7-16.96,28.55-1.85,9.24-.61,17.01.52,21.63-.91-.96-12.78-13.9-8.65-30.97,3.14-12.97,13.34-19.36,15.4-20.59-6.16,3.66-24.21,15.49-32.19,38.59-3.65,10.59-4,20.1-3.63,26.65-3.5-5.22-7.2-12.63-8.48-21.98-.53-3.86-2.95-21.52,8.83-35.99,5.04-6.19,10.85-9.55,14.36-11.25-4.73.71-13.61,2.73-22.32,9.34-5.23,3.97-8.71,8.32-10.9,11.59.22-3.86,1.33-14.3,9.17-23.88,6.33-7.73,13.81-10.97,16.27-11.94Z"/>
        <g>
          <path class="cls-1" d="M235.22,608.04c-14.88,0-25.89-11.83-25.89-26.78v-.15c0-14.73,11.02-26.93,26.04-26.93,9.3,0,14.89,3.42,20.24,8.33l-2.75,2.83c-4.54-4.39-9.75-7.67-17.56-7.67-12.5,0-21.94,10.19-21.94,23.29v.15c0,13.17,9.6,23.43,22.01,23.43,7.52,0,12.66-2.9,17.94-8.11l2.6,2.53c-5.51,5.43-11.46,9.08-20.68,9.08Z"/>
          <path class="cls-1" d="M324.91,607.15l-6.63-14.58h-30.73l-6.62,14.58h-4.01l24.25-52.45h3.71l24.25,52.45h-4.23ZM302.96,558.94l-13.77,30.13h27.46l-13.69-30.13Z"/>
          <path class="cls-1" d="M355,607.15v-52.08h3.87v48.51h30.57v3.57h-34.44Z"/>
          <path class="cls-1" d="M416.41,607.15v-52.08h3.87v52.08h-3.87Z"/>
          <path class="cls-1" d="M455.01,558.64v21.35h29.46v3.57h-29.46v23.58h-3.87v-52.08h36.67v3.57h-32.8Z"/>
          <path class="cls-1" d="M537.1,608.04c-15.77,0-26.11-12.57-26.11-26.78v-.15c0-14.21,10.49-26.93,26.25-26.93s26.12,12.57,26.12,26.78q.07.07,0,.15c0,14.21-10.49,26.93-26.27,26.93ZM559.35,581.11c0-12.87-9.38-23.44-22.25-23.44s-22.09,10.42-22.09,23.29v.15c0,12.87,9.38,23.43,22.24,23.43s22.11-10.41,22.11-23.29v-.15Z"/>
          <path class="cls-1" d="M628.86,607.15l-16.6-21.58h-17.03v21.58h-3.87v-52.08h21.88c11.23,0,18.6,6.1,18.6,14.81v.15c0,8.71-6.47,13.69-15.26,14.88l17.19,22.25h-4.91ZM627.97,570.02c0-6.99-5.51-11.38-14.96-11.38h-17.78v23.43h17.56c8.7,0,15.18-4.39,15.18-11.9v-.15Z"/>
          <path class="cls-1" d="M700.39,607.15l-36.67-46.28v46.28h-3.72v-52.08h3.65l35.93,45.31v-45.31h3.71v52.08h-2.9Z"/>
          <path class="cls-1" d="M734.13,607.15v-52.08h3.87v52.08h-3.87Z"/>
          <path class="cls-1" d="M812.38,607.15l-6.63-14.58h-30.73l-6.62,14.58h-4.01l24.25-52.45h3.71l24.25,52.45h-4.23ZM790.43,558.94l-13.77,30.13h27.46l-13.69-30.13Z"/>
          <path class="cls-1" d="M896.97,607.15h-17.33v-52.08h17.33c16.37,0,27.68,11.23,27.68,25.89v.15c0,14.65-11.31,26.04-27.68,26.04ZM920.63,581.11c0-12.35-9.15-22.47-23.66-22.47h-13.46v44.94h13.46c14.51,0,23.66-9.9,23.66-22.32v-.15Z"/>
          <path class="cls-1" d="M990.15,607.15l-16.6-21.58h-17.03v21.58h-3.87v-52.08h21.88c11.23,0,18.6,6.1,18.6,14.81v.15c0,8.71-6.47,13.69-15.26,14.88l17.19,22.25h-4.91ZM989.26,570.02c0-6.99-5.51-11.38-14.96-11.38h-17.78v23.43h17.56c8.7,0,15.18-4.39,15.18-11.9v-.15Z"/>
          <path class="cls-1" d="M1021.28,607.15v-52.08h37.05v3.57h-33.18v20.46h29.83v3.57h-29.83v20.91h33.56v3.57h-37.43Z"/>
          <path class="cls-1" d="M1129.5,607.15l-6.63-14.58h-30.73l-6.62,14.58h-4.01l24.25-52.45h3.71l24.25,52.45h-4.23ZM1107.55,558.94l-13.77,30.13h27.46l-13.69-30.13Z"/>
          <path class="cls-1" d="M1204.82,607.15v-45.23l-20.6,29.98h-.3l-20.61-29.98v45.23h-3.71v-52.08h3.64l20.9,30.8,20.91-30.8h3.64v52.08h-3.87Z"/>
          <path class="cls-1" d="M1239.51,607.15v-52.08h3.87v52.08h-3.87Z"/>
          <path class="cls-1" d="M1314.64,607.15l-36.68-46.28v46.28h-3.71v-52.08h3.64l35.93,45.31v-45.31h3.72v52.08h-2.9Z"/>
          <path class="cls-1" d="M1371.73,608.04c-16.44,0-26.19-12.13-26.19-26.78v-.15c0-14.06,10.2-26.93,25.75-26.93,8.47,0,13.84,2.53,19.05,6.85l-2.53,2.9c-4.1-3.57-8.86-6.25-16.74-6.25-12.64,0-21.49,10.72-21.49,23.29v.15c0,13.46,8.4,23.51,22.31,23.51,6.62,0,12.8-2.75,16.59-5.95v-14.95h-17.41v-3.57h21.13v20.09c-4.69,4.16-11.98,7.81-20.46,7.81Z"/>
        </g>
      </g>
    </g>
  </g>
</svg>