<?xml version="1.0" encoding="UTF-8"?>
<svg id="Layer_1" xmlns="http://www.w3.org/2000/svg" xmlns:xlink="http://www.w3.org/1999/xlink" version="1.1" viewBox="0 0 1280 541">
  <!-- Generator: Adobe Illustrator 30.2.1, SVG Export Plug-In . SVG Version: 2.1.1 Build 1)  -->
  <defs>
    <style>
      .st0, .st1 {
        fill: #424240;
      }

      .st2, .st1 {
        opacity: .66;
      }

      .st3 {
        fill: url(#New_Gradient_Swatch_1);
      }
    </style>
    <linearGradient id="New_Gradient_Swatch_1" data-name="New Gradient Swatch 1" x1="378.5" y1="18.62" x2="378.5" y2="306.11" gradientUnits="userSpaceOnUse">
      <stop offset="0" stop-color="#ffc416"/>
      <stop offset=".51" stop-color="#f6dc7c"/>
      <stop offset="1" stop-color="#f1e3b5"/>
    </linearGradient>
  </defs>
  <g class="st2">
    <path class="st0" d="M93.99,364.14h-42.46l-16.52,46.32h16.09v4.07H18.29v-4.07h10.08l54.69-147.32h17.58l54.04,147.32h9.87v4.07h-70.13v-4.07h15.23l-15.66-46.32ZM53.47,359.43h38.82l-18.66-56.19-20.16,56.19Z"/>
    <path class="st0" d="M222.58,338v14.79c2.73-8.04,8.04-16.4,23.96-16.4,14.95,0,24.93,7.4,24.93,26.86v48.4h9v2.89h-45.51v-2.89h6.6v-52.26c0-13.67-1.93-15.27-5.95-15.27-6.75,0-13.03,10.13-13.03,23.15v44.38h6.91v2.89h-45.67v-2.89h8.85v-70.76h-8.85v-2.89h38.76Z"/>
    <path class="st0" d="M298.34,387.36h1.93c5.95,19.62,15.76,25.25,28.94,25.25,11.9,0,16.4-4.35,16.4-10.45,0-7.24-7.88-8.84-20.09-12.22-12.87-3.54-27.18-8.52-27.18-26.37,0-16.4,11.26-27.18,28.3-27.18,7.07,0,11.89,1.77,16.24,3.7,1.93.8,2.57,1.29,4.5,1.29,2.41,0,3.53-1.29,5.63-5.3h1.77v24.6h-1.93c-5.79-14.79-14-20.91-25.41-20.91-10.62,0-14.95,4.35-14.95,9.33,0,7.4,9.65,9.17,20.26,12.06,12.7,3.38,26.86,8.52,26.86,27.5s-11.9,27.5-30.08,27.5c-7.71,0-13.18-1.61-19.29-4.66-.97-.65-2.42-1.29-3.05-1.29-2.09,0-4.35,1.45-6.92,5.95h-1.93v-28.78Z"/>
    <path class="st0" d="M419.43,336.39c27.01,0,39.87,12.7,39.87,38.75s-12.22,41.01-40.84,41.01c-27.01,0-40.69-14.48-40.69-39.56,0-26.37,15.77-40.2,41.65-40.2ZM428.44,369.19c0-17.37-.48-29.91-9.49-29.91-9.81,0-10.29,12.54-10.29,30.71v12.54c0,18.65.32,30.71,10.13,30.71,9.17,0,9.65-9.49,9.65-30.39v-13.67Z"/>
    <path class="st0" d="M514.63,338v14.79c2.57-8.04,7.88-16.4,22.68-16.4,11.41,0,19.94,4.99,22.67,17.37,2.57-8.04,9.17-17.37,23.64-17.37s23.65,7.4,23.65,26.86v48.4h9v2.89h-44.54v-2.89h5.63v-52.26c0-13.67-1.77-15.27-4.67-15.27-5.78,0-11.74,8.68-11.74,22.19v45.35h5.78v2.89h-41.32v-2.89h5.63v-52.26c0-13.67-1.77-15.27-4.67-15.27-5.94,0-11.74,10.13-11.74,23.15v44.38h5.79v2.89h-44.54v-2.89h8.84v-70.76h-8.84v-2.89h38.75Z"/>
    <path class="st0" d="M786.17,264.43l2.15,42.46h-3.87c-11.79-28.09-21.87-37.75-47.82-37.75h-7.5v66.26h7.29c13.93,0,22.95-11.79,26.59-28.09h3.21v63.48h-3.65c-5.14-21.45-13.29-29.81-28.3-29.81h-5.15v68.84h8.15c27.24,0,46.11-18.66,52.54-42.03h4.28l-1.71,46.75h-117.74v-4.72h12.66v-140.68h-12.66v-4.72h111.52Z"/>
    <path class="st0" d="M820.04,338h48.08v2.89h-10.13l19.3,53.39,17.36-53.39h-10.78v-2.89h21.71v2.89h-7.08l-23.79,73.65h-18.33l-29.75-73.65h-6.59v-2.89Z"/>
    <path class="st0" d="M957.37,336.39c25.25,0,36.02,12.7,35.06,36.66h-45.34v6.27c0,18.97,3.38,31.84,18.97,31.84,11.9,0,19.95-7.56,23.48-19.94l2.9.48c-3.7,13.83-12.06,24.44-34.89,24.44-28.63,0-41.49-16.4-41.49-39.72,0-27.82,18.97-40.04,41.32-40.04ZM963.8,369.83v-7.88c0-16.88-1.28-22.51-7.88-22.51-5.63,0-8.68,5.47-8.68,22.51v7.88h16.56Z"/>
    <path class="st0" d="M1049.36,338v14.79c2.73-8.04,8.04-16.4,23.96-16.4,14.95,0,24.93,7.4,24.93,26.86v48.4h9v2.89h-45.51v-2.89h6.6v-52.26c0-13.67-1.93-15.27-5.95-15.27-6.75,0-13.03,10.13-13.03,23.15v44.38h6.91v2.89h-45.67v-2.89h8.85v-70.76h-8.85v-2.89h38.76Z"/>
    <path class="st0" d="M1128.66,340.89h-8.85v-2.89h8.85v-20.74l29.9-7.39v28.14h20.91v2.89h-20.91v54.19c0,9.49,1.45,14.63,7.08,14.63,7.72,0,12.55-7.08,14-18.01l2.73.32c-1.45,12.54-6.75,24.12-26.37,24.12-15.92,0-27.34-4.66-27.34-24.6v-50.65Z"/>
    <path class="st0" d="M1199.73,387.36h1.94c5.94,19.62,15.76,25.25,28.94,25.25,11.9,0,16.4-4.35,16.4-10.45,0-7.24-7.88-8.84-20.1-12.22-12.86-3.54-27.18-8.52-27.18-26.37,0-16.4,11.26-27.18,28.3-27.18,7.08,0,11.9,1.77,16.24,3.7,1.94.8,2.57,1.29,4.5,1.29,2.42,0,3.54-1.29,5.64-5.3h1.76v24.6h-1.93c-5.78-14.79-13.99-20.91-25.41-20.91-10.61,0-14.95,4.35-14.95,9.33,0,7.4,9.65,9.17,20.26,12.06,12.7,3.38,26.86,8.52,26.86,27.5s-11.9,27.5-30.07,27.5c-7.72,0-13.18-1.61-19.3-4.66-.96-.65-2.41-1.29-3.05-1.29-2.09,0-4.35,1.45-6.91,5.95h-1.94v-28.78Z"/>
  </g>
  <path class="st3" d="M378.5,18.62c-119.54,0-216.44,96.9-216.44,216.44,0,24.9,4.26,48.79,11.99,71.05h408.89c7.74-22.26,11.99-46.16,11.99-71.05,0-119.54-96.9-216.44-216.44-216.44Z"/>
  <path class="st1" d="M344.94,172.55c-5.06-2-9.57-2.33-12.37-2.33,2.72-2.42,6.67-5.44,11.94-8.01,5.72-2.79,10.94-4.05,14.7-4.66-4.17-.86-11.85-1.86-20.96.44-7.21,1.82-12.51,4.99-15.72,7.28,1.02-3.15,2.59-9.47,1.31-17.32-1.36-8.35-5.23-14.1-7.28-16.74,1.86,4.99,5.23,16.25,1.75,29.4-1.33,5.04-3.35,9.13-5.24,12.23.73-1.79,5.13-13.1-.73-23.87-5.83-10.73-17.58-13.07-22.12-13.97-9.47-1.88-17.29.4-20.96,1.75,2.63.32,22.63,3.1,32.17,20.23,3.81,6.84,4.58,13.51,4.66,17.76-3.07-13.17-12.78-22.96-24.02-24.45-12.65-1.68-22.79,7.78-24.6,9.46-3.9,3.63-6.22,7.48-7.57,10.19,2.88-2.04,7.72-4.93,14.26-6.4,3.61-.82,16.14-3.64,27.22,3.93,6.47,4.42,9.62,10.46,11.06,13.97-6.79-9.57-17.99-14.88-29.26-13.68-14.29,1.52-23.7,12.98-26.93,23.29-2.2,7.02-1.44,13.25-.73,16.74,1.16-3.83,4.4-12.52,12.95-19.21,1.1-.86,15.04-11.41,31.73-6.99,4.61,1.22,8.06,3.22,10.19,4.66-6.56-1.36-13.11.6-17.03,5.24-3.03,3.6-3.53,7.69-3.64,9.46,1.07-1.76,5.41-8.42,13.54-10.19,2.56-.55,4.85-.49,6.65-.24-2.45,2.43-6.14,6.3-10.09,11.45-20.66,26.93-24.02,56.82-25.52,71.8-.75,7.52-1.33,18.28-.29,31.33,6.54-.22,13.07-.43,19.61-.65-.89-3.53-1.99-8.47-2.8-14.44-1.03-7.56-3.62-31.4,5.39-60.11,2.9-9.26,7.97-22.08,17.1-35.94,2.06,2.63,4.7,6.62,6.7,11.94,1.85,4.92,2.52,9.32,2.77,12.52,1.57-3.61,4.31-11.35,2.47-20.67-.64-3.24-1.7-5.98-2.77-8.15,3.09,2.65,11.6,10.68,14.26,24.02,1.55,7.77.52,14.31-.44,18.19.76-.8,10.75-11.7,7.28-26.05-2.64-10.91-11.22-16.28-12.95-17.32,5.18,3.08,20.37,13.03,27.07,32.46,3.07,8.9,3.37,16.91,3.06,22.41,2.94-4.39,6.06-10.62,7.13-18.48.44-3.24,2.48-18.1-7.42-30.27-4.24-5.21-9.12-8.03-12.08-9.46,3.98.6,11.45,2.29,18.78,7.86,4.4,3.34,7.32,7,9.17,9.75-.18-3.25-1.12-12.03-7.71-20.09-5.32-6.5-11.62-9.23-13.68-10.04Z"/>
  <path class="st1" d="M414.68,172.55c5.06-2,9.57-2.33,12.37-2.33-2.72-2.42-6.67-5.44-11.94-8.01-5.72-2.79-10.94-4.05-14.7-4.66,4.17-.86,11.85-1.86,20.96.44,7.21,1.82,12.51,4.99,15.72,7.28-1.02-3.15-2.59-9.47-1.31-17.32,1.36-8.35,5.23-14.1,7.28-16.74-1.86,4.99-5.23,16.25-1.75,29.4,1.33,5.04,3.35,9.13,5.24,12.23-.73-1.79-5.13-13.1.73-23.87,5.83-10.73,17.58-13.07,22.12-13.97,9.47-1.88,17.29.4,20.96,1.75-2.63.32-22.63,3.1-32.17,20.23-3.81,6.84-4.58,13.51-4.66,17.76,3.07-13.17,12.78-22.96,24.02-24.45,12.65-1.68,22.79,7.78,24.6,9.46,3.9,3.63,6.22,7.48,7.57,10.19-2.88-2.04-7.72-4.93-14.26-6.4-3.61-.82-16.14-3.64-27.22,3.93-6.47,4.42-9.62,10.46-11.06,13.97,6.79-9.57,17.99-14.88,29.26-13.68,14.29,1.52,23.7,12.98,26.93,23.29,2.2,7.02,1.44,13.25.73,16.74-1.16-3.83-4.4-12.52-12.95-19.21-1.1-.86-15.04-11.41-31.73-6.99-4.61,1.22-8.06,3.22-10.19,4.66,6.56-1.36,13.11.6,17.03,5.24,3.03,3.6,3.53,7.69,3.64,9.46-1.07-1.76-5.41-8.42-13.54-10.19-2.56-.55-4.85-.49-6.65-.24,2.45,2.43,6.14,6.3,10.09,11.45,20.66,26.93,24.02,56.82,25.52,71.8.75,7.52,1.33,18.28.29,31.33-6.54-.22-13.07-.43-19.61-.65.89-3.53,1.99-8.47,2.8-14.44,1.03-7.56,3.62-31.4-5.39-60.11-2.9-9.26-7.97-22.08-17.1-35.94-2.06,2.63-4.7,6.62-6.7,11.94-1.85,4.92-2.52,9.32-2.77,12.52-1.57-3.61-4.31-11.35-2.47-20.67.64-3.24,1.7-5.98,2.77-8.15-3.09,2.65-11.6,10.68-14.26,24.02-1.55,7.77-.52,14.31.44,18.19-.76-.8-10.75-11.7-7.28-26.05,2.64-10.91,11.22-16.28,12.95-17.32-5.18,3.08-20.37,13.03-27.07,32.46-3.07,8.9-3.37,16.91-3.06,22.41-2.94-4.39-6.06-10.62-7.13-18.48-.44-3.24-2.48-18.1,7.42-30.27,4.24-5.21,9.12-8.03,12.08-9.46-3.98.6-11.45,2.29-18.78,7.86-4.4,3.34-7.32,7-9.17,9.75.18-3.25,1.12-12.03,7.71-20.09,5.32-6.5,11.62-9.23,13.68-10.04Z"/>
  <g class="st2">
    <path class="st0" d="M164.6,508.15c-12.51,0-21.78-9.95-21.78-22.53v-.12c0-12.39,9.27-22.65,21.9-22.65,7.83,0,12.52,2.88,17.02,7.01l-2.31,2.38c-3.82-3.69-8.2-6.45-14.77-6.45-10.51,0-18.45,8.57-18.45,19.59v.13c0,11.08,8.07,19.71,18.51,19.71,6.33,0,10.64-2.44,15.09-6.82l2.19,2.13c-4.63,4.57-9.64,7.63-17.4,7.63Z"/>
    <path class="st0" d="M240.04,507.4l-5.58-12.26h-25.84l-5.57,12.26h-3.38l20.4-44.11h3.12l20.4,44.11h-3.56ZM221.57,466.85l-11.58,25.34h23.1l-11.52-25.34Z"/>
    <path class="st0" d="M265.35,507.4v-43.8h3.25v40.8h25.71v3h-28.97Z"/>
    <path class="st0" d="M317,507.4v-43.8h3.25v43.8h-3.25Z"/>
    <path class="st0" d="M349.47,466.6v17.96h24.78v3h-24.78v19.84h-3.25v-43.8h30.84v3.01h-27.59Z"/>
    <path class="st0" d="M418.52,508.15c-13.26,0-21.96-10.57-21.96-22.53v-.12c0-11.95,8.82-22.65,22.08-22.65s21.97,10.57,21.97,22.53q.06.06,0,.13c0,11.95-8.82,22.65-22.09,22.65ZM437.23,485.5c0-10.83-7.89-19.71-18.72-19.71s-18.58,8.76-18.58,19.59v.13c0,10.82,7.89,19.71,18.71,19.71s18.59-8.76,18.59-19.59v-.12Z"/>
    <path class="st0" d="M495.7,507.4l-13.96-18.15h-14.33v18.15h-3.25v-43.8h18.4c9.45,0,15.64,5.13,15.64,12.46v.12c0,7.32-5.44,11.52-12.83,12.52l14.46,18.71h-4.13ZM494.95,476.17c0-5.88-4.63-9.57-12.58-9.57h-14.95v19.71h14.77c7.32,0,12.76-3.69,12.76-10.01v-.13Z"/>
    <path class="st0" d="M555.86,507.4l-30.84-38.92v38.92h-3.13v-43.8h3.07l30.22,38.11v-38.11h3.12v43.8h-2.44Z"/>
    <path class="st0" d="M584.24,507.4v-43.8h3.25v43.8h-3.25Z"/>
    <path class="st0" d="M650.06,507.4l-5.58-12.26h-25.84l-5.57,12.26h-3.38l20.4-44.11h3.12l20.4,44.11h-3.56ZM631.59,466.85l-11.58,25.34h23.1l-11.52-25.34Z"/>
    <path class="st0" d="M721.21,507.4h-14.58v-43.8h14.58c13.77,0,23.28,9.45,23.28,21.78v.13c0,12.32-9.51,21.9-23.28,21.9ZM741.11,485.5c0-10.39-7.7-18.9-19.9-18.9h-11.33v37.8h11.33c12.21,0,19.9-8.32,19.9-18.78v-.12Z"/>
    <path class="st0" d="M799.59,507.4l-13.96-18.15h-14.33v18.15h-3.25v-43.8h18.4c9.45,0,15.64,5.13,15.64,12.46v.12c0,7.32-5.44,11.52-12.83,12.52l14.46,18.71h-4.13ZM798.84,476.17c0-5.88-4.63-9.57-12.58-9.57h-14.95v19.71h14.77c7.32,0,12.76-3.69,12.76-10.01v-.13Z"/>
    <path class="st0" d="M825.77,507.4v-43.8h31.17v3.01h-27.91v17.21h25.09v3.01h-25.09v17.59h28.23v3h-31.48Z"/>
    <path class="st0" d="M916.79,507.4l-5.58-12.26h-25.84l-5.57,12.26h-3.38l20.4-44.11h3.12l20.4,44.11h-3.56ZM898.33,466.85l-11.58,25.34h23.1l-11.52-25.34Z"/>
    <path class="st0" d="M980.15,507.4v-38.05l-17.33,25.22h-.25l-17.34-25.22v38.05h-3.12v-43.8h3.06l17.58,25.91,17.59-25.91h3.06v43.8h-3.25Z"/>
    <path class="st0" d="M1009.33,507.4v-43.8h3.25v43.8h-3.25Z"/>
    <path class="st0" d="M1072.52,507.4l-30.85-38.92v38.92h-3.12v-43.8h3.06l30.22,38.11v-38.11h3.13v43.8h-2.44Z"/>
    <path class="st0" d="M1120.54,508.15c-13.83,0-22.03-10.2-22.03-22.53v-.12c0-11.83,8.58-22.65,21.66-22.65,7.13,0,11.64,2.13,16.02,5.76l-2.13,2.44c-3.45-3-7.45-5.26-14.08-5.26-10.64,0-18.08,9.01-18.08,19.59v.13c0,11.33,7.07,19.77,18.77,19.77,5.57,0,10.77-2.31,13.95-5v-12.58h-14.64v-3.01h17.77v16.9c-3.94,3.5-10.08,6.57-17.21,6.57Z"/>
  </g>
</svg>