<?xml version="1.0" encoding="UTF-8"?>
<svg xmlns="http://www.w3.org/2000/svg"
  viewBox="0 0 17.64 24.11"
  fill="currentColor" >
  <path d="M16.72,24.11H3.46c-.11,0-.2-.09-.2-.2s.09-.2.2-.2h13.27c.29,0,.53-.24.53-.53V5.9c0-1.83-1.49-3.32-3.32-3.32h-1.57c-.11,0-.2-.09-.2-.2s.09-.2.2-.2h1.57c2.05,0,3.71,1.66,3.71,3.71v17.29c0,.51-.41.92-.92.92Z"/>
  <path d="M.92,24.11h13.27c.11,0,.2-.09.2-.2,0-.11-.09-.2-.2-.2H.92c-.29,0-.53-.24-.53-.53V5.9c0-1.83,1.49-3.32,3.32-3.32h1.57c.11,0,.2-.09.2-.2,0-.11-.09-.2-.2-.2h-1.57C1.66,2.19,0,3.86,0,5.9v17.29c0,.51.41.92.92.92Z"/>
  <path d="M9.19,8.83h-4.34c-.11,0-.2-.09-.2-.2s.09-.2.2-.2h4.34c.11,0,.2.09.2.2s-.09.2-.2.2Z"/>
  <path d="M6.73,11.82h-2.02c-.11,0-.2-.09-.2-.2s.09-.2.2-.2h2.02c.11,0,.2.09.2.2s-.09.2-.2.2Z"/>
  <path d="M6.73,17.81h-2.02c-.11,0-.2-.09-.2-.2s.09-.2.2-.2h2.02c.11,0,.2.09.2.2s-.09.2-.2.2Z"/>
  <path d="M9.31,14.81h-4.34c-.11,0-.2-.09-.2-.2s.09-.2.2-.2h4.34c.11,0,.2.09.2.2s-.09.2-.2.2Z"/>
  <path d="M14.69,10.52h-2.81c-.3,0-.55-.24-.55-.55v-2.81c0-.3.24-.55.55-.55h2.81c.3,0,.55.24.55.55v2.81c0,.3-.24.55-.55.55ZM11.88,7.01c-.09,0-.16.07-.16.16v2.81c0,.09.07.16.16.16h2.81c.09,0,.16-.07.16-.16v-2.81c0-.09-.07-.16-.16-.16h-2.81Z"/>
  <path d="M13.14,9.37c-.06,0-.11-.02-.15-.07l-.73-.82c-.07-.08-.06-.2.02-.28.08-.07.2-.06.28.02l.58.65.81-1.01c.07-.08.19-.1.27-.03.08.07.1.19.03.27l-.95,1.19s-.09.07-.15.07c0,0,0,0,0,0Z"/>
  <path d="M14.73,14.93h-2.81c-.3,0-.55-.24-.55-.55v-2.81c0-.3.24-.55.55-.55h2.81c.3,0,.55.24.55.55v2.81c0,.3-.24.55-.55.55ZM11.92,11.42c-.09,0-.16.07-.16.16v2.81c0,.09.07.16.16.16h2.81c.09,0,.16-.07.16-.16v-2.81c0-.09-.07-.16-.16-.16h-2.81Z"/>
  <path d="M13.18,13.78c-.06,0-.11-.02-.15-.07l-.73-.82c-.07-.08-.06-.2.02-.28.08-.07.2-.06.28.02l.58.65.81-1.01c.07-.08.19-.1.27-.03.08.07.1.19.03.27l-.95,1.19s-.09.07-.15.07c0,0,0,0,0,0Z"/>
  <path d="M14.77,19.34h-2.81c-.3,0-.55-.24-.55-.55v-2.81c0-.3.24-.55.55-.55h2.81c.3,0,.55.24.55.55v2.81c0,.3-.24.55-.55.55ZM11.95,15.83c-.09,0-.16.07-.16.16v2.81c0,.09.07.16.16.16h2.81c.09,0,.16-.07.16-.16v-2.81c0-.09-.07-.16-.16-.16h-2.81Z"/>
  <path d="M13.21,18.19c-.06,0-.11-.02-.15-.07l-.73-.82c-.07-.08-.06-.2.02-.28.08-.07.2-.06.28.02l.58.65.81-1.01c.07-.08.19-.1.27-.03.08.07.1.19.03.27l-.95,1.19s-.09.07-.15.07c0,0,0,0,0,0Z"/>
  <path d="M11.84,3.98h-5.73c-.4,0-.72-.32-.72-.72v-1.78c0-.81.66-1.48,1.48-1.48h4.22c.81,0,1.48.66,1.48,1.48v1.78c0,.4-.32.72-.72.72ZM6.86.39c-.6,0-1.09.49-1.09,1.09v1.78c0,.18.15.33.33.33h5.73c.18,0,.33-.15.33-.33v-1.78c0-.6-.49-1.09-1.09-1.09h-4.22Z"/>
</svg>