<?xml version="1.0" encoding="UTF-8"?>
<svg xmlns="http://www.w3.org/2000/svg"  viewBox="0 0 24 11.34" fill='currentColor'>
  <path d="M7.36,11.34s-.07-.01-.1-.03l-1.6-1.08-1.8.71c-.07.03-.14.01-.2-.04-.05-.05-.07-.12-.05-.19l.53-1.86-1.23-1.49c-.05-.06-.06-.13-.03-.2.03-.07.09-.11.16-.11l1.93-.07,1.04-1.63c.04-.06.11-.09.18-.09.07,0,.13.06.16.12l.66,1.81,1.87.48c.07.02.12.07.14.14.01.07-.01.14-.07.19l-1.52,1.19.12,1.93c0,.07-.03.14-.09.17-.03.02-.06.02-.09.02ZM5.68,9.84s.07.01.1.03l1.37.92-.1-1.64c0-.06.02-.12.07-.16l1.3-1.02-1.6-.41c-.06-.02-.11-.06-.13-.12l-.56-1.55-.89,1.39c-.03.05-.09.08-.15.09l-1.65.06,1.05,1.27s.05.11.04.17l-.45,1.58,1.53-.6s.05-.01.07-.01Z"/>
  <path d="M18.05,10.68s-.05,0-.07-.01c-.07-.03-.11-.09-.12-.16l-.17-1.92-1.68-.95c-.06-.04-.1-.1-.09-.17,0-.07.05-.13.11-.16l1.78-.75.39-1.89c.01-.07.07-.13.14-.14.07-.02.14,0,.19.06l1.26,1.46,1.92-.22c.07,0,.14.03.18.09.04.06.04.14,0,.2l-1,1.65.8,1.76c.03.07.02.14-.03.2-.05.06-.12.08-.19.06l-1.88-.44-1.42,1.3s-.08.05-.13.05ZM16.54,7.49l1.43.81c.05.03.09.09.09.15l.14,1.64,1.22-1.11s.11-.06.17-.04l1.6.37-.68-1.5c-.03-.06-.02-.12.01-.17l.85-1.41-1.64.18c-.06,0-.12-.02-.16-.06l-1.08-1.24-.33,1.61c-.01.06-.05.11-.11.14l-1.52.64ZM17.98,6.68h0,0Z"/>
  <path d="M11.33,10.18s-.08-.01-.11-.04c-.06-.04-.09-.11-.07-.18l.2-1.19-.87-.84c-.05-.05-.07-.12-.05-.19.02-.07.08-.12.15-.13l1.2-.17.53-1.08c.03-.06.1-.1.17-.1s.14.04.17.1l.54,1.08,1.2.17c.07.01.13.06.15.13.02.07,0,.14-.05.19l-.87.84.2,1.19c.01.07-.02.14-.07.18-.06.04-.13.05-.2.01l-1.07-.56-1.07.56s-.06.02-.09.02ZM12.48,9.2s.06,0,.09.02l.82.43-.16-.91c-.01-.06,0-.12.05-.17l.66-.65-.92-.13c-.06,0-.11-.05-.14-.1l-.41-.83-.41.83c-.03.06-.08.09-.14.1l-.92.13.66.65s.06.11.05.17l-.16.91.82-.43s.06-.02.09-.02Z"/>
  <path d="M11.3,2.88c-1.64,0-3.1-.13-4.34-.31C2.74,1.97.13.67.1.66.01.61-.03.5.02.41c.05-.09.16-.13.25-.08.03.01,2.59,1.29,6.75,1.88C10.86,2.75,16.87,2.82,23.74.01c.1-.04.21,0,.24.1.04.1,0,.21-.1.24-4.74,1.93-9.08,2.52-12.59,2.52Z"/>
  <path d="M2.64,6.24s-.03,0-.05,0c-.07-.02-.12-.07-.13-.13L1,.97c-.03-.1.03-.2.13-.23.1-.03.2.03.23.13l1.37,4.82,3.42-3.53c.07-.07.19-.08.27,0,.07.07.08.19,0,.27l-3.65,3.77s-.08.06-.13.06Z"/>
  <path d="M9.18,7.23s0,0-.01,0c-.07,0-.13-.04-.16-.1l-2.37-4.68c-.05-.09,0-.21.08-.25.09-.05.21,0,.25.08l2.22,4.39,2.67-4.08c.06-.09.17-.11.26-.05.09.06.11.17.05.26l-2.85,4.36c-.03.05-.09.09-.16.09Z"/>
  <path d="M15.67,7.04c-.06,0-.11-.03-.15-.08l-3.12-4.17c-.06-.08-.04-.2.04-.26.08-.06.2-.04.26.04l2.92,3.91,1.94-4.51c.04-.1.15-.14.25-.1.1.04.14.15.1.25l-2.07,4.81c-.03.06-.08.1-.15.11,0,0-.01,0-.02,0Z"/>
  <path d="M22.06,5.64s-.09-.02-.13-.05l-3.82-3.52c-.08-.07-.08-.19-.01-.27.07-.08.19-.08.27-.01l3.58,3.3,1.05-4.7c.02-.1.12-.17.22-.14.1.02.17.12.14.22l-1.12,5.02c-.01.07-.06.12-.13.14-.02,0-.04,0-.06,0Z"/>
</svg>