<?xml version="1.0" encoding="UTF-8"?>
<svg  xmlns="http://www.w3.org/2000/svg" viewBox="0 0 15.7 19.51" fill="currentColor">
  <g>
    <path d="M14.89,19.51H3.08c-.1,0-.17-.08-.17-.17s.08-.17.17-.17h11.81c.26,0,.47-.21.47-.47V3.3c0-1.63-1.33-2.96-2.96-2.96h-1.4c-.1,0-.17-.08-.17-.17S10.91,0,11,0h1.4C14.22,0,15.7,1.48,15.7,3.3v15.4c0,.45-.37.82-.82.82Z"/>
    <path d="M.82,19.51h11.81c.1,0,.17-.08.17-.17,0-.1-.08-.17-.17-.17H.82c-.26,0-.47-.21-.47-.47V3.3c0-1.63,1.33-2.96,2.96-2.96h7.7c.1,0,.17-.08.17-.17S11.1,0,11,0H3.3C1.48,0,0,1.48,0,3.3v15.4c0,.45.37.82.82.82Z"/>
  </g>
  <path d="M13.42,6.99H2.52c-.08,0-.14-.06-.14-.14s.06-.14.14-.14h10.9c.08,0,.14.06.14.14s-.06.14-.14.14Z"/>
  <path d="M13.42,4.89H2.52c-.08,0-.14-.06-.14-.14s.06-.14.14-.14h10.9c.08,0,.14.06.14.14s-.06.14-.14.14Z"/>
  <path d="M13.41,9.1H2.51c-.08,0-.14-.06-.14-.14s.06-.14.14-.14h10.9c.08,0,.14.06.14.14s-.06.14-.14.14Z"/>
  <path d="M13.41,11.2H2.51c-.08,0-.14-.06-.14-.14s.06-.14.14-.14h10.9c.08,0,.14.06.14.14s-.06.14-.14.14Z"/>
  <path d="M13.41,13.29H2.51c-.08,0-.14-.06-.14-.14s.06-.14.14-.14h10.9c.08,0,.14.06.14.14s-.06.14-.14.14Z"/>
  <path d="M13.41,15.39H2.51c-.08,0-.14-.06-.14-.14s.06-.14.14-.14h10.9c.08,0,.14.06.14.14s-.06.14-.14.14Z"/>
</svg>