<?xml version="1.0" encoding="UTF-8"?>
<svg  xmlns="http://www.w3.org/2000/svg" viewBox="0 0 21.8 18.02" fill="currentColor">
  <path d="M20.6,18.02H.53c-.32,0-.53-.32-.53-.63V2.55c0-.11.04-.46.53-.46h2.1c.11,0,.2.09.2.2s-.09.2-.2.2H.53c-.1,0-.12.02-.13.02,0,0,0,.01,0,.04v14.84c0,.11.08.23.13.23h20.06c.11,0,.2.09.2.2s-.09.2-.2.2Z"/>
  <path d="M21.34,18.02h-1.13c-.11,0-.2-.09-.2-.2s.09-.2.2-.2h1.13s.06-.09.06-.23V2.55s0-.04,0-.05c-.01,0-.03,0-.06,0h-2.2c-.11,0-.2-.09-.2-.2s.09-.2.2-.2h2.2c.31,0,.47.15.47.46v14.84c0,.37-.19.63-.47.63ZM21.42,2.5h0,0Z"/>
  <path d="M17.78,2.49H3.98c-.11,0-.2-.09-.2-.2s.09-.2.2-.2h13.8c.11,0,.2.09.2.2s-.09.2-.2.2Z"/>
  <path d="M3.31,4.39c-.48,0-.88-.39-.88-.88V1.12c0-.48.39-.88.88-.88s.88.39.88.88v2.39c0,.48-.39.88-.88.88ZM3.31.64c-.26,0-.48.21-.48.48v2.39c0,.26.21.48.48.48s.48-.21.48-.48V1.12c0-.26-.21-.48-.48-.48Z"/>
  <path d="M18.46,4.15c-.48,0-.88-.39-.88-.88V.88c0-.48.39-.88.88-.88s.88.39.88.88v2.39c0,.48-.39.88-.88.88ZM18.46.4c-.26,0-.48.21-.48.48v2.39c0,.26.21.48.48.48s.48-.21.48-.48V.88c0-.26-.21-.48-.48-.48Z"/>
  <path d="M15.7,4.68H6.06c-.11,0-.2-.09-.2-.2s.09-.2.2-.2h9.64c.11,0,.2.09.2.2s-.09.2-.2.2Z"/>
</svg>