<?xml version="1.0" encoding="UTF-8"?>
<svg  xmlns="http://www.w3.org/2000/svg" fill="currentColor" viewBox="0 0 20.27 22.89">
  <path d="M6.05,16.73h-1.99c-.1,0-.19-.08-.19-.19v-3.77c0-.1.08-.19.19-.19s.19.08.19.19v3.58h1.62v-3.58c0-.1.08-.19.19-.19s.19.08.19.19v3.77c0,.1-.08.19-.19.19Z" fill="currentColor"/>
  <path d="M16.02,16.73h-1.99c-.1,0-.19-.08-.19-.19v-3.77c0-.1.08-.19.19-.19s.19.08.19.19v3.58h1.62v-3.58c0-.1.08-.19.19-.19s.19.08.19.19v3.77c0,.1-.08.19-.19.19Z" fill="currentColor"/>
  <path d="M10.07,5.81s-.04,0-.06,0l-1.89-.63s-.09-.05-.11-.09c-.02-.04-.03-.1-.01-.14l1.19-3.57c.03-.1.14-.15.24-.12.1.03.15.14.12.24l-1.13,3.39,1.53.51,1.13-3.39c.03-.1.14-.15.24-.12.1.03.15.14.12.24l-1.19,3.57s-.05.09-.09.11c-.03.01-.06.02-.08.02Z" fill="currentColor"/>
  <path d="M10.12,22.89H.19c-.1,0-.19-.08-.19-.19v-9.93c0-.1.08-.19.19-.19h9.93c.1,0,.19.08.19.19v9.93c0,.1-.08.19-.19.19ZM.38,22.51h9.55v-9.55H.38v9.55Z"/>
  <path d="M20.08,22.89h-9.93c-.1,0-.19-.08-.19-.19v-9.93c0-.1.08-.19.19-.19h9.93c.1,0,.19.08.19.19v9.93c0,.1-.08.19-.19.19ZM10.34,22.51h9.55v-9.55h-9.55v9.55Z"/>
  <path d="M11.97,12.94s-.04,0-.06,0l-9.42-3.15c-.1-.03-.15-.14-.12-.24L5.53.13s.05-.09.09-.11c.04-.02.1-.03.14-.01l9.42,3.15c.1.03.15.14.12.24l-3.15,9.42s-.05.09-.09.11c-.03.01-.06.02-.08.02ZM2.8,9.48l9.06,3.03,3.03-9.06L5.82.43l-3.03,9.06Z"/>
</svg>