<?xml version="1.0" encoding="UTF-8"?>
<svg xmlns="http://www.w3.org/2000/svg"  viewBox="0 0 22.15 15.56" fill='currentColor'>
  <path d="M11.82,11.1h-7.76c-.55,0-1.02-.33-1.24-.88,0,0,0-.01,0-.02L.1,1.74c-.13-.3-.14-.63-.02-.93C.2.49.43.25.73.11c.16-.07.33-.11.51-.11.49,0,.93.29,1.13.73,0,.01,0,.02.01.03l2.39,7.76c.03.06.09.09.15.09h6.93c.34,0,.65.13.89.38.24.24.36.56.35.9h-.29s.29,0,.29,0c-.02.67-.59,1.21-1.28,1.21ZM3.35,10.01c.18.45.52.51.7.51h7.76c.38,0,.69-.29.7-.65,0-.18-.06-.35-.19-.48-.13-.13-.3-.2-.48-.2h-6.93c-.29,0-.56-.17-.68-.44,0-.01,0-.02-.01-.03L1.84.95c-.11-.23-.34-.38-.6-.38-.09,0-.19.02-.27.06-.16.07-.29.2-.35.37-.06.17-.06.35.02.51,0,0,0,.02.01.03l2.7,8.46Z" fill='currentColor'/>
  <path d="M8.09,15.56c-.21,0-.42-.08-.57-.23-.15-.16-.24-.36-.24-.57v-3.72c0-.16.13-.29.29-.29s.29.13.29.29v3.72c0,.06.02.12.07.16.04.04.1.07.16.07.13,0,.23-.1.23-.23v-3.72c0-.16.13-.29.29-.29s.29.13.29.29v3.72c0,.45-.36.81-.81.81Z" fill='currentColor'/>
  <path d="M21.92,14.31h-6.72c-.13,0-.23-.1-.23-.23V3.16s0-.08,0-.08c0,0,0-.16,0-.39,0-.08.12-.1.19-.1h6.32c.37,0,.66.3.66.66v10.83c0,.13-.1.23-.23.23ZM15.78,13.73h5.56c.13,0,.23-.1.23-.23V3.39c0-.13-.1-.23-.23-.23h-5.56c-.13,0-.23.1-.23.23v10.1c0,.13.1.23.23.23Z" fill='currentColor'/>
</svg>